# xmcd
#
# Track frame offsets: 
#        150
#        6137
#        26999
#        47047
#        68426
#        89903
#        114364
#        134031
#        151963
#        173647
#        190567
#        207212
#
# Disc length: 2835 seconds
#
# Revision: 1
# Processed by: cddbd v1.5.2PL0 Copyright (c) Steve Scherf et al.
# Submitted via: ExactAudioCopy v1.0b3
#
DISCID=9e0b110c
DTITLE=Victor Davies - Hoxton Popstars
DYEAR=2003
DGENRE=Soul
TTITLE0=This One's For Everyone (Intro) 
TTITLE1=Fly Away
TTITLE2=Mama's Eyes 
TTITLE3=Maybe Tomorrow
TTITLE4=Morning Sun 
TTITLE5=Fire
TTITLE6=I Love You So 
TTITLE7=Walking In The Rain 
TTITLE8=Be Yourself (Bonus Track) 
TTITLE9=What Could Be More Sad 
TTITLE10=Ba Do De Da 
TTITLE11=This One's For Everyone (Reprise)
EXTD=
EXTT0=
EXTT1=
EXTT2=
EXTT3=
EXTT4=
EXTT5=
EXTT6=
EXTT7=
EXTT8=
EXTT9=
EXTT10=
EXTT11=
PLAYORDER=
